<?xml version="1.0" standalone="no"?><!DOCTYPE svg PUBLIC "-//W3C//DTD SVG 1.1//EN" "http://www.w3.org/Graphics/SVG/1.1/DTD/svg11.dtd"><svg t="1719568701754" class="icon" viewBox="0 0 1024 1024" version="1.1" xmlns="http://www.w3.org/2000/svg" p-id="1429" xmlns:xlink="http://www.w3.org/1999/xlink" width="200" height="200"><path d="M288 128c-53 0-96 43-96 96v576c0 53 43 96 96 96h64c53 0 96-43 96-96V224c0-53-43-96-96-96h-64z m384 0c-53 0-96 43-96 96v576c0 53 43 96 96 96h64c53 0 96-43 96-96V224c0-53-43-96-96-96h-64z" p-id="1430"></path></svg>